<svg xmlns="http://www.w3.org/2000/svg" xmlns:xlink="http://www.w3.org/1999/xlink" width="1920" zoomAndPan="magnify" viewBox="0 0 1440 809.999993" height="1080" preserveAspectRatio="xMidYMid meet" version="1.0"><defs><filter x="0%" y="0%" width="100%" height="100%" id="f67af17aa8"><feColorMatrix values="0 0 0 0 1 0 0 0 0 1 0 0 0 0 1 0 0 0 1 0" color-interpolation-filters="sRGB"/></filter><mask id="6366c7d0ed"><g filter="url(#f67af17aa8)"><rect x="-144" width="1728" fill="#000000" y="-80.999999" height="971.999992" fill-opacity="0.97"/></g></mask><clipPath id="edd4a55ee6"><path d="M 1 1 L 57.839844 1 L 57.839844 58 L 1 58 Z M 1 1 " clip-rule="nonzero"/></clipPath><clipPath id="b8e7439f48"><rect x="0" width="58" y="0" height="59"/></clipPath><clipPath id="37acff673d"><path d="M 553 282 L 937.65625 282 L 937.65625 571.632812 L 553 571.632812 Z M 553 282 " clip-rule="nonzero"/></clipPath><clipPath id="4153615c3a"><path d="M 502.65625 238.632812 L 887 238.632812 L 887 528 L 502.65625 528 Z M 502.65625 238.632812 " clip-rule="nonzero"/></clipPath></defs><rect x="-144" width="1728" fill="#ffffff" y="-80.999999" height="971.999992" fill-opacity="1"/><rect x="-144" width="1728" fill="#404040" y="-80.999999" height="971.999992" fill-opacity="1"/><path fill="#737373" d="M 594.625 536.980469 L 895.769531 536.980469 C 895.769531 536.980469 812.214844 366.953125 795.71875 363.683594 C 779.21875 360.417969 707.097656 477.054688 707.097656 477.054688 C 707.097656 477.054688 667.617188 402.667969 651.601562 404.542969 C 635.59375 406.417969 594.628906 536.984375 594.628906 536.984375 Z M 594.625 536.980469 " fill-opacity="1" fill-rule="nonzero"/><g mask="url(#6366c7d0ed)"><g transform="matrix(1, 0, 0, 1, 660, 316)"><g clip-path="url(#b8e7439f48)"><g clip-path="url(#edd4a55ee6)"><path fill="#737373" d="M 57.453125 29.351562 C 57.453125 30.273438 57.40625 31.191406 57.316406 32.109375 C 57.226562 33.023438 57.09375 33.933594 56.914062 34.835938 C 56.734375 35.742188 56.507812 36.632812 56.242188 37.515625 C 55.976562 38.394531 55.664062 39.261719 55.3125 40.113281 C 54.960938 40.960938 54.566406 41.792969 54.132812 42.605469 C 53.699219 43.417969 53.226562 44.207031 52.714844 44.972656 C 52.203125 45.738281 51.65625 46.476562 51.070312 47.1875 C 50.488281 47.902344 49.867188 48.582031 49.21875 49.234375 C 48.566406 49.882812 47.886719 50.503906 47.171875 51.085938 C 46.460938 51.671875 45.722656 52.21875 44.957031 52.730469 C 44.191406 53.242188 43.402344 53.714844 42.589844 54.148438 C 41.777344 54.582031 40.945312 54.976562 40.097656 55.328125 C 39.246094 55.679688 38.378906 55.992188 37.5 56.257812 C 36.617188 56.523438 35.726562 56.75 34.820312 56.929688 C 33.917969 57.109375 33.007812 57.242188 32.09375 57.332031 C 31.175781 57.421875 30.257812 57.46875 29.335938 57.46875 C 28.414062 57.46875 27.496094 57.421875 26.582031 57.332031 C 25.664062 57.242188 24.753906 57.109375 23.851562 56.929688 C 22.949219 56.75 22.054688 56.523438 21.175781 56.257812 C 20.292969 55.992188 19.425781 55.679688 18.578125 55.328125 C 17.726562 54.976562 16.894531 54.582031 16.082031 54.148438 C 15.269531 53.714844 14.480469 53.242188 13.714844 52.730469 C 12.949219 52.21875 12.210938 51.671875 11.5 51.085938 C 10.789062 50.503906 10.105469 49.882812 9.457031 49.234375 C 8.804688 48.582031 8.1875 47.902344 7.601562 47.1875 C 7.019531 46.476562 6.46875 45.738281 5.957031 44.972656 C 5.449219 44.207031 4.972656 43.417969 4.539062 42.605469 C 4.105469 41.792969 3.714844 40.960938 3.359375 40.113281 C 3.007812 39.261719 2.699219 38.394531 2.429688 37.515625 C 2.164062 36.632812 1.941406 35.742188 1.761719 34.835938 C 1.582031 33.933594 1.445312 33.023438 1.355469 32.109375 C 1.265625 31.191406 1.21875 30.273438 1.21875 29.351562 C 1.21875 28.433594 1.265625 27.511719 1.355469 26.597656 C 1.445312 25.679688 1.582031 24.769531 1.761719 23.867188 C 1.941406 22.964844 2.164062 22.070312 2.429688 21.191406 C 2.699219 20.308594 3.007812 19.445312 3.359375 18.59375 C 3.714844 17.742188 4.105469 16.910156 4.539062 16.097656 C 4.972656 15.285156 5.449219 14.496094 5.957031 13.730469 C 6.46875 12.964844 7.019531 12.226562 7.601562 11.515625 C 8.1875 10.804688 8.804688 10.121094 9.457031 9.472656 C 10.105469 8.820312 10.789062 8.203125 11.5 7.617188 C 12.210938 7.035156 12.949219 6.488281 13.714844 5.976562 C 14.480469 5.464844 15.269531 4.992188 16.082031 4.554688 C 16.894531 4.121094 17.726562 3.730469 18.578125 3.375 C 19.425781 3.023438 20.292969 2.714844 21.175781 2.445312 C 22.054688 2.179688 22.949219 1.957031 23.851562 1.777344 C 24.753906 1.597656 25.664062 1.460938 26.582031 1.371094 C 27.496094 1.28125 28.414062 1.238281 29.335938 1.238281 C 30.257812 1.238281 31.175781 1.28125 32.09375 1.371094 C 33.007812 1.460938 33.917969 1.597656 34.820312 1.777344 C 35.726562 1.957031 36.617188 2.179688 37.5 2.445312 C 38.378906 2.714844 39.246094 3.023438 40.097656 3.375 C 40.945312 3.730469 41.777344 4.121094 42.589844 4.554688 C 43.402344 4.992188 44.191406 5.464844 44.957031 5.976562 C 45.722656 6.488281 46.460938 7.035156 47.171875 7.617188 C 47.886719 8.203125 48.566406 8.820312 49.21875 9.472656 C 49.867188 10.121094 50.488281 10.804688 51.070312 11.515625 C 51.65625 12.226562 52.203125 12.964844 52.714844 13.730469 C 53.226562 14.496094 53.699219 15.285156 54.132812 16.097656 C 54.566406 16.910156 54.960938 17.742188 55.3125 18.59375 C 55.664062 19.445312 55.976562 20.308594 56.242188 21.191406 C 56.507812 22.070312 56.734375 22.964844 56.914062 23.867188 C 57.09375 24.769531 57.226562 25.679688 57.316406 26.597656 C 57.40625 27.511719 57.453125 28.433594 57.453125 29.351562 Z M 57.453125 29.351562 " fill-opacity="1" fill-rule="nonzero"/></g></g></g></g><g clip-path="url(#37acff673d)"><path fill="#737373" d="M 553.027344 282.988281 L 553.027344 571.238281 L 937.363281 571.238281 L 937.363281 282.988281 Z M 577.050781 302.203125 L 913.34375 302.203125 L 913.34375 552.023438 L 577.050781 552.023438 Z M 577.050781 302.203125 " fill-opacity="1" fill-rule="nonzero"/></g><g clip-path="url(#4153615c3a)"><path fill="#737373" d="M 502.65625 238.773438 L 502.65625 527.023438 L 541.089844 527.023438 L 541.089844 507.808594 L 526.675781 507.808594 L 526.675781 257.988281 L 862.96875 257.988281 L 862.96875 272.753906 L 886.992188 272.753906 L 886.992188 238.773438 Z M 502.65625 238.773438 " fill-opacity="1" fill-rule="nonzero"/></g></svg>